# xmcd
#
# Track frame offsets: 
#        150
#        18891
#        38569
#        69659
#        83919
#        115681
#        132816
#        161574
#        173353
#        217698
#        243952
#        277753
#        290943
#
# Disc length: 4592 seconds
#
# Revision: 0
# Processed by: cddbd v1.5.2PL0 Copyright (c) Steve Scherf et al.
# Submitted via: ExactAudioCopy v1.0b1
#
DISCID=a111ee0d
DTITLE=Nationalteatern - Live I Hultsfred 1995 {Lagg Av! Historien Om 
DTITLE=Nationalteatern 2010 CD Box} [CD 9)
DYEAR=1995
DGENRE=Swedish Progg
TTITLE0=Livet Ar En Fest
TTITLE1=Sent En Lördag Kväll
TTITLE2=Bängen Trålar
TTITLE3=Speedy Gonzales
TTITLE4=Spisa
TTITLE5=Men Bara Om Min Alskade Väntar
TTITLE6=Jack The Ripper
TTITLE7=Lägg Av!
TTITLE8=Barn Av Vår Tid
TTITLE9=Kolla Kolla
TTITLE10=Vi Fortsätter Spela Rock'n'n Roll, Men Vi Håller På Att Dö
TTITLE11=Ut I Kylan
TTITLE12=Rövarkungens O (bonusspår, live 2008)
EXTD=
EXTT0=
EXTT1=
EXTT2=
EXTT3=
EXTT4=
EXTT5=
EXTT6=
EXTT7=
EXTT8=
EXTT9=
EXTT10=
EXTT11=
EXTT12=
PLAYORDER=
